<svg xmlns="http://www.w3.org/2000/svg"  viewBox="0 0 48 48" width="48px" height="48px"><path d="M 14.978516 2.9960938 A 1.50015 1.50015 0 0 0 13.917969 3.4355469 L 9.0390625 8.3164062 L 6.8515625 8.1347656 A 1.50015 1.50015 0 0 0 5.2695312 9.9824219 L 7 17.150391 L 7 28.5 A 1.50015 1.50015 0 0 0 7.5410156 29.654297 L 12 33.359375 L 12 35.5 A 1.50015 1.50015 0 0 0 12.439453 36.560547 L 15.890625 40.011719 L 15.904297 39.998047 L 16.992188 41.935547 A 1.50015 1.50015 0 0 0 17.285156 42.302734 L 19.783203 44.603516 A 1.50015 1.50015 0 0 0 20.798828 45 L 24 45 L 27.201172 45 A 1.50015 1.50015 0 0 0 28.216797 44.603516 L 30.714844 42.302734 A 1.50015 1.50015 0 0 0 31.007812 41.935547 L 32.095703 39.998047 L 32.109375 40.011719 L 35.560547 36.560547 A 1.50015 1.50015 0 0 0 36 35.5 L 36 33.359375 L 40.458984 29.654297 A 1.50015 1.50015 0 0 0 41 28.5 L 41 17.150391 L 42.730469 9.9824219 A 1.50015 1.50015 0 0 0 41.148438 8.1347656 L 38.960938 8.3164062 L 34.082031 3.4355469 A 1.50015 1.50015 0 0 0 33.021484 2.9960938 L 30.230469 2.9960938 A 1.50015 1.50015 0 0 0 30.15625 3 L 17.875 3 A 1.50015 1.50015 0 0 0 17.769531 2.9960938 L 14.978516 2.9960938 z M 15.599609 5.9960938 L 16.777344 5.9960938 L 17.150391 6.8730469 L 16.296875 8.9160156 L 12.957031 8.640625 L 15.599609 5.9960938 z M 31.222656 5.9960938 L 32.400391 5.9960938 L 35.042969 8.640625 L 31.703125 8.9160156 L 30.849609 6.8730469 L 31.222656 5.9960938 z M 20.035156 6 L 27.964844 6 L 24 15.34375 L 20.035156 6 z M 18.787109 10.736328 L 22.498047 19.484375 L 22.494141 20 L 21.257812 20 L 18.160156 18.900391 L 14.173828 11.75 L 17.136719 11.994141 A 1.50015 1.50015 0 0 0 18.644531 11.078125 L 18.787109 10.736328 z M 29.212891 10.736328 L 29.355469 11.078125 A 1.50015 1.50015 0 0 0 30.863281 11.994141 L 33.826172 11.75 L 29.839844 18.900391 L 26.742188 20 L 25.505859 20 L 25.501953 19.484375 L 29.212891 10.736328 z M 8.671875 11.294922 L 10.570312 11.451172 L 13.875 17.376953 L 9.7890625 15.925781 L 8.671875 11.294922 z M 39.328125 11.294922 L 38.210938 15.925781 L 34.125 17.376953 L 37.429688 11.451172 L 39.328125 11.294922 z M 10 19.183594 L 12.921875 20.222656 L 15.574219 22.875 L 16.734375 22.617188 L 15.285156 24.621094 A 1.50015 1.50015 0 0 0 15 25.5 L 15 31.953125 L 10 27.796875 L 10 19.183594 z M 38 19.183594 L 38 27.796875 L 33 31.953125 L 33 25.5 A 1.50015 1.50015 0 0 0 32.714844 24.621094 L 31.273438 22.628906 L 32.382812 22.875 L 35.011719 20.246094 L 38 19.183594 z M 20.277344 22.835938 L 20.498047 22.914062 A 1.50015 1.50015 0 0 0 21 23 L 24 23 L 27 23 A 1.50015 1.50015 0 0 0 27.501953 22.914062 L 27.722656 22.835938 L 28.015625 23.242188 L 24 29.669922 L 19.984375 23.242188 L 20.277344 22.835938 z M 18.085938 25.867188 L 22.728516 33.294922 A 1.50015 1.50015 0 0 0 25.271484 33.294922 L 29.914062 25.867188 L 30 25.986328 L 30 37.607422 L 28.509766 40.257812 L 26.615234 42 L 24 42 L 21.384766 42 L 19.490234 40.257812 L 18 37.607422 L 18 25.986328 L 18.085938 25.867188 z"/></svg>