<svg xmlns="http://www.w3.org/2000/svg" viewBox="0 0 399.76 289.03"><g id="Calque_2" data-name="Calque 2"><g id="Calque_1-2" data-name="Calque 1"><path d="M4,249.25a10.33,10.33,0,0,1-3.57-5.12,10.19,10.19,0,0,1-.23-5.22,6.18,6.18,0,0,1,2.54-3.76,7.48,7.48,0,0,1,5-1.13l1.39-.68c0-.16.07-.23.23-.23q7.6-14.78,16.94-34.78t18.44-42.28q9.1-22.29,17.17-45.24T75.62,67.16a269,269,0,0,0,7.72-37.51q2.07-16.81-.69-26.82l-.23-1.59C82.42.18,83.26-.2,85,.1a26.5,26.5,0,0,1,6.34,2.27A93.32,93.32,0,0,1,99.7,7q4.62,2.85,8.65,5.8a61.64,61.64,0,0,1,6.8,5.68q2.76,2.73,3.23,4.55.45,8.19-2.66,22.51t-9,32.5q-5.87,18.2-13.94,38.65T75.27,157.64Q65.82,178.1,55.33,197a370.56,370.56,0,0,1-21.09,33.88q11.07.45,23.51,2.16t26.51,3.75q18,2.94,37,5.34a300.67,300.67,0,0,0,37.45,2.39,178.5,178.5,0,0,0,31.58-2.73A98,98,0,0,0,218.88,232q2.3-.22,3.68,3.87a31,31,0,0,1,1.5,9.32,52.5,52.5,0,0,1-.69,10q-.81,4.77-2.42,5.91l.69-.23a46.4,46.4,0,0,1-20.4,11.6,99,99,0,0,1-26.85,3.41,222.94,222.94,0,0,1-42.3-4.32q-22.25-4.32-44.6-9.55-20.3-4.55-38.61-8.07a173,173,0,0,0-32.16-3.52c-1.69,0-3.19,0-4.49.11s-2.73.19-4.27.34Z"/><path d="M139.24,247.65q6.45-.22,14.06-6.14a101.29,101.29,0,0,0,16-16.25,263,263,0,0,0,17.41-24.44q9-14.08,18.32-30.34t18.79-34.1q9.45-17.85,18.9-36,11.07-20.92,21.55-41t20.63-37.16c.31-1.37.58-2.69.81-4s.5-2.54.81-3.75l.23-.69q.92-2.49,5.3-.11a45.9,45.9,0,0,1,9.22,6.93,69.16,69.16,0,0,1,8.64,9.78c2.54,3.49,3.81,6.36,3.81,8.64Q307,71.25,300.48,96.71T288.15,144q-2.76,10.92-5.53,21.37t-5.3,21q-2.55,10.58-5,21.48t-4.49,23q3.92-9.54,7.72-19t7.72-19v.22l7.15-17.27q17.06-41.61,35.84-81.61a616.91,616.91,0,0,1,43-76.84,3.19,3.19,0,0,1,3.34-.91,17.82,17.82,0,0,1,4.84,1.93,26.79,26.79,0,0,1,5.19,3.87A37,37,0,0,1,387,27.15,74.76,74.76,0,0,1,396.26,37q3.92,5.11,3.45,7.17A73.75,73.75,0,0,0,393.26,56q-3.92,8.41-8.3,20.11t-9.22,26.15q-4.83,14.43-9.22,30.12t-8.07,31.94q-3.69,16.24-6,31.48a267.63,267.63,0,0,0-2.88,28.65,122.17,122.17,0,0,0,1,23.86,39.54,39.54,0,0,0,3.8,12.73,13.08,13.08,0,0,0,7,6.6A36,36,0,0,0,382.08,269a51.16,51.16,0,0,0,7.95-2.5q3.69,0,4.61,3.07a13.54,13.54,0,0,1,0,7.05A20.69,20.69,0,0,1,391.3,284a9.38,9.38,0,0,1-5.42,4.1q-3.22.45-6.91.68t-8.3.23a67.88,67.88,0,0,1-8.53-.57,59.15,59.15,0,0,1-9-1.93,37.6,37.6,0,0,1-20.86-15Q324.56,260.38,322,244a131.67,131.67,0,0,1-1.73-23.42q.12-12.73,1.62-26.6t4.15-28.53q2.64-14.65,6.11-29.21Q317.66,165.83,304.86,195t-24.55,58.08a45.28,45.28,0,0,1-5.07,8.41,33.39,33.39,0,0,1-7.37,7.27,21.39,21.39,0,0,1-9.11,3.75,14.87,14.87,0,0,1-10-2.16l.23.23q-9-4.55-11.06-19.09-1.62-10.23-.12-25.24t5-33.07q3.47-18.08,8.41-38.19t10.26-40.35Q254.72,128.08,248,141T234,167q-4.84,8.87-10.95,19.44T211.16,205.6c-1.23,1.67-2.53,3.56-3.92,5.68s-2.84,4.47-4.38,7.05q-5.54,8.64-12.21,18.3a151.79,151.79,0,0,1-14.29,17.73,80.64,80.64,0,0,1-16.26,13.41A32.47,32.47,0,0,1,142,272.89a28.57,28.57,0,0,1-17.4-5.91,51.88,51.88,0,0,1-12.45-14.33"/></g></g></svg>